<svg height="200px" width="200px" version="1.1" id="Layer_1" xmlns="http://www.w3.org/2000/svg"
  xmlns:xlink="http://www.w3.org/1999/xlink" viewBox="0 0 512 512" xml:space="preserve" fill="#000000">
  <g id="SVGRepo_bgCarrier" stroke-width="0"></g>
  <g id="SVGRepo_tracerCarrier" stroke-linecap="round" stroke-linejoin="round"></g>
  <g id="SVGRepo_iconCarrier">
    <g transform="translate(1 1)">
      <g>
        <path style="fill:#8c8c8c;"
          d="M317.293,35.693C306.2,59.587,282.307,75.8,255,75.8v426.667h93.867 c18.773,0,34.133-15.36,34.133-34.133V223.427l58.88,222.72c2.56,9.387,11.947,15.36,21.333,11.947l26.453-7.68 c8.533-2.56,14.507-11.947,11.947-20.48L408.6,92.867c0,0,3.413-18.773-76.8-42.667L317.293,35.693L317.293,35.693L317.293,35.693 z">
        </path>
        <path style="fill:#8c8c8c;"
          d="M192.707,35.693L178.2,50.2c-80.213,23.893-76.8,42.667-76.8,42.667h0.853H101.4L8.387,430.787 c-2.56,9.387,2.56,17.92,11.947,20.48l26.453,7.68c9.387,2.56,18.773-2.56,21.333-11.947L127,223.427v244.907 c0,18.773,15.36,34.133,34.133,34.133H255V75.8C227.693,75.8,203.8,59.587,192.707,35.693">
        </path>
      </g>
      <g>
        <path style="fill:#ffffff;"
          d="M225.133,7.533c-7.68,0-15.36,4.267-18.773,11.947l-2.56,5.12c0,0-5.12,5.12-11.093,11.093 C203.8,59.587,227.693,75.8,255,75.8s51.2-16.213,62.293-40.107L306.2,24.6l0,0l-2.56-5.12 c-3.413-7.68-11.093-11.947-18.773-11.947H225.133z">
        </path>
        <path style="fill:#ffffff;"
          d="M441.88,447c2.56,9.387,11.947,15.36,21.333,11.947l26.453-7.68 c8.533-2.56,14.507-11.947,11.947-20.48l-5.12-19.627l-58.88,17.067L441.88,447z">
        </path>
      </g>
      <path style="fill:#8c8c8c;"
        d="M501.613,428.227L408.6,90.307c0,0,3.413-18.773-76.8-42.667l-14.507-14.507l0,0 c-1.707,3.413-4.267,7.68-5.973,11.093l3.413,3.413c80.213,23.893,76.8,42.667,76.8,42.667l93.013,337.92 c2.56,9.387-2.56,17.92-11.947,20.48l-21.333,6.827c3.413,1.707,8.533,2.56,12.8,1.707l26.453-7.68 C499.053,446.147,504.173,437.613,501.613,428.227">
      </path>
      <path style="fill:#ffffff;"
        d="M13.507,411.16l-5.12,19.627c-2.56,9.387,2.56,17.92,11.947,20.48l26.453,7.68 c9.387,2.56,18.773-2.56,21.333-11.947l5.12-18.773L13.507,411.16z">
      </path>
      <path style="fill:#8c8c8c;"
        d="M8.387,430.787L101.4,92.867c0,0-3.413-18.773,76.8-42.667l14.507-14.507l0,0 c1.707,3.413,4.267,7.68,5.973,11.093l-3.413,3.413c-80.213,23.893-76.8,42.667-76.8,42.667l-93.013,337.92 c-2.56,9.387,2.56,17.92,11.947,20.48l21.333,6.827c-3.413,1.707-8.533,2.56-12.8,1.707l-25.6-8.533 C10.947,448.707,5.827,440.173,8.387,430.787">
      </path>
      <path
        d="M331.8,178.2c-5.12,0-8.533-3.413-8.533-8.533c0-14.507-11.093-25.6-25.6-25.6c-5.12,0-8.533-3.413-8.533-8.533 s3.413-8.533,8.533-8.533c13.653,0,26.453,6.827,34.133,17.067c7.68-10.24,20.48-17.067,34.133-17.067 c5.12,0,8.533,3.413,8.533,8.533s-3.413,8.533-8.533,8.533c-14.507,0-25.6,11.093-25.6,25.6 C340.333,174.787,336.92,178.2,331.8,178.2z">
      </path>
      <path
        d="M458.947,468.333c-11.947,0-22.187-7.68-24.747-19.627l-5.12-17.92c-0.853-4.267,1.707-9.387,5.973-10.24l58.88-17.067 c2.56-0.853,4.267,0,6.827,0.853c1.707,0.853,3.413,2.56,4.267,5.12l5.12,19.627c3.413,13.653-4.267,27.307-17.92,31.573 l-26.453,7.68C463.213,468.333,461.507,468.333,458.947,468.333z M447.853,434.2l2.56,10.24c0.853,5.12,5.973,7.68,11.093,5.973 l26.453-7.68c4.267-0.853,6.827-5.973,5.973-10.24L490.52,421.4L447.853,434.2z">
      </path>
      <path
        d="M51.053,468.333L51.053,468.333c-2.56,0-5.12,0-6.827-0.853l-26.453-7.68C4.12,456.387-3.56,441.88-0.147,429.08 l5.12-19.627c0.853-2.56,1.707-4.267,4.267-5.12s4.267-1.707,6.827-0.853l58.88,17.067c4.267,1.707,6.827,5.973,5.973,10.24 l-5.12,17.92C73.24,460.653,63,468.333,51.053,468.333z M19.48,422.253l-3.413,11.093c-0.853,4.267,1.707,9.387,5.973,10.24 l26.453,7.68c4.267,1.707,9.387-1.707,10.24-5.973l3.413-11.093L19.48,422.253z">
      </path>
      <path
        d="M255,84.333c-29.867,0-57.173-17.92-69.973-45.227c-1.707-3.413-0.853-6.827,1.707-9.387l10.24-10.24l1.707-4.267 C203.8,4.973,214.04-1,225.133-1h58.88c11.093,0,21.333,5.973,26.453,16.213l1.707,4.267l11.093,10.24 c2.56,2.56,3.413,5.973,1.707,9.387C312.173,66.413,284.867,84.333,255,84.333z M202.947,37.4 C214.04,55.32,233.667,67.267,255,67.267S295.96,55.32,307.053,37.4l-6.827-6.827c-0.853-0.853-0.853-1.707-1.707-2.56l-2.56-5.12 c-2.56-4.267-6.827-6.827-11.093-6.827h-58.88c-5.12,0-9.387,2.56-11.093,6.827l-2.56,5.12c0,0.853-0.853,1.707-1.707,2.56 L202.947,37.4z">
      </path>
      <path
        d="M348.867,511H255c-5.12,0-8.533-3.413-8.533-8.533V75.8c0-5.12,3.413-8.533,8.533-8.533 c23.04,0,44.373-13.653,54.613-34.987c0.853-2.56,3.413-4.267,5.973-5.12s5.973,0,7.68,2.56l12.8,12.8 c68.267,20.48,81.067,39.253,81.067,49.493l93.013,336.213c3.413,13.653-4.267,27.307-17.92,31.573l-26.453,7.68 c-2.56,0.853-4.267,0.853-6.827,0.853l0,0c-11.947,0-22.187-7.68-24.747-19.627l-42.667-159.573v179.2 C391.533,492.227,372.76,511,348.867,511z M263.533,493.933h85.333c14.507,0,25.6-11.093,25.6-25.6V223.427 c0-4.267,3.413-7.68,7.68-8.533s8.533,2.56,9.387,5.973l58.88,222.72c0.853,4.267,4.267,6.827,8.533,6.827l0,0 c0.853,0,1.707,0,2.56,0l26.453-7.68c4.267-0.853,6.827-5.973,5.973-10.24L400.067,95.427c0-0.853,0-1.707,0-2.56 c-0.853-1.707-9.387-16.213-70.827-34.987c-1.707,0-2.56-0.853-3.413-2.56L319,48.493c-12.8,18.773-33.28,31.573-55.467,34.133 V493.933z">
      </path>
      <path
        d="M255,511h-93.867c-23.893,0-42.667-18.773-42.667-42.667v-179.2L75.8,448.707c-2.56,11.947-12.8,19.627-24.747,19.627 c-2.56,0-5.12,0-6.827-0.853l-26.453-7.68C4.12,456.387-3.56,441.88-0.147,429.08L92.867,92.013c0-10.24,12.8-28.16,81.067-49.493 l12.8-12.8c1.707-1.707,5.12-2.56,7.68-2.56c2.56,0.853,5.12,2.56,5.973,5.12C210.627,53.613,231.96,67.267,255,67.267 c5.12,0,8.533,3.413,8.533,8.533v426.667C263.533,507.587,260.12,511,255,511z M127,214.893h0.853 c4.267,0.853,7.68,4.267,7.68,8.533v244.907c0,14.507,11.093,25.6,25.6,25.6h85.333V83.48c-23.04-2.56-43.52-15.36-55.467-34.133 l-6.827,6.827c-0.853,0.853-2.56,1.707-3.413,2.56c-58.88,17.067-69.12,30.72-70.827,34.133c0,1.707,0,2.56-0.853,4.267 c0,0,0,0,0,0.853l-93.013,335.36c-0.853,4.267,1.707,9.387,5.973,10.24l26.453,7.68c4.267,1.707,9.387-1.707,10.24-5.973 l59.733-223.573C120.173,217.453,123.587,214.893,127,214.893z">
      </path>
    </g>
  </g>
</svg>